# xmcd
#
# Track frame offsets: 
#        150
#        22975
#        45530
#        66375
#        90815
#        108140
#        129340
#        149782
#        167637
#        185900
#
# Disc length: 2871 seconds
#
# Revision: 17
# Processed by: cddbd v1.5.1PL0 Copyright (c) Steve Scherf et al.
# Submitted via: ExactAudioCopy v0.95a5
#
DISCID=840b350a
DTITLE=????? - ?????
DYEAR=1997
DGENRE=
TTITLE0=?????
TTITLE1=Sunny day Holiday
TTITLE2=?????We are not alone, forever
TTITLE3=??????
TTITLE4=?????????
TTITLE5=?????????????
TTITLE6=?????????
TTITLE7=????????
TTITLE8=Woman
TTITLE9=Saint of Love
EXTD=\n YEAR: 1997/12/05
EXTT0=
EXTT1=
EXTT2=
EXTT3=
EXTT4=
EXTT5=
EXTT6=
EXTT7=
EXTT8=
EXTT9=
PLAYORDER=
